<svg width="39" height="39" viewBox="0 0 39 39" fill="none" xmlns="http://www.w3.org/2000/svg">
<g filter="url(#filter0_d_35_189)">
<path d="M13.0973 17.8992L12.2967 20.8879L9.37052 20.9498C8.49603 19.3278 8 17.4721 8 15.5C8 13.593 8.46377 11.7947 9.28584 10.2112H9.28647L11.8916 10.6889L13.0328 13.2783C12.7939 13.9747 12.6637 14.7222 12.6637 15.5C12.6638 16.3442 12.8167 17.153 13.0973 17.8992Z" fill="#FBBB00"/>
</g>
<g filter="url(#filter1_d_35_189)">
<path d="M30.7989 13.3517C30.931 14.0473 30.9999 14.7658 30.9999 15.5C30.9999 16.3234 30.9133 17.1265 30.7484 17.9011C30.1886 20.5373 28.7258 22.8392 26.6994 24.4681L26.6988 24.4675L23.4175 24.3001L22.9531 21.4011C24.2977 20.6125 25.3485 19.3784 25.902 17.9011H19.7527V13.3517H25.9918H30.7989Z" fill="#518EF8"/>
</g>
<g filter="url(#filter2_d_35_189)">
<path d="M26.6987 24.4675L26.6993 24.4681C24.7286 26.0522 22.2251 27 19.4998 27C15.1204 27 11.3127 24.5522 9.37036 20.9499L13.0971 17.8992C14.0683 20.4911 16.5686 22.3362 19.4998 22.3362C20.7598 22.3362 21.9401 21.9956 22.953 21.401L26.6987 24.4675Z" fill="#28B446"/>
</g>
<g filter="url(#filter3_d_35_189)">
<path d="M26.8405 6.64752L23.115 9.69753C22.0667 9.0423 20.8276 8.66379 19.5 8.66379C16.5025 8.66379 13.9554 10.5935 13.0329 13.2783L9.28652 10.2113H9.28589C11.1998 6.52115 15.0555 4 19.5 4C22.2904 4 24.8488 4.99394 26.8405 6.64752Z" fill="#F14336"/>
</g>
<defs>
<filter id="filter0_d_35_189" x="0" y="6.21124" width="21.0973" height="26.7386" filterUnits="userSpaceOnUse" color-interpolation-filters="sRGB">
<feFlood flood-opacity="0" result="BackgroundImageFix"/>
<feColorMatrix in="SourceAlpha" type="matrix" values="0 0 0 0 0 0 0 0 0 0 0 0 0 0 0 0 0 0 127 0" result="hardAlpha"/>
<feOffset dy="4"/>
<feGaussianBlur stdDeviation="4"/>
<feColorMatrix type="matrix" values="0 0 0 0 0.984314 0 0 0 0 0.733333 0 0 0 0 0 0 0 0 0.12 0"/>
<feBlend mode="normal" in2="BackgroundImageFix" result="effect1_dropShadow_35_189"/>
<feBlend mode="normal" in="SourceGraphic" in2="effect1_dropShadow_35_189" result="shape"/>
</filter>
<filter id="filter1_d_35_189" x="11.7527" y="9.35168" width="27.2472" height="27.1165" filterUnits="userSpaceOnUse" color-interpolation-filters="sRGB">
<feFlood flood-opacity="0" result="BackgroundImageFix"/>
<feColorMatrix in="SourceAlpha" type="matrix" values="0 0 0 0 0 0 0 0 0 0 0 0 0 0 0 0 0 0 127 0" result="hardAlpha"/>
<feOffset dy="4"/>
<feGaussianBlur stdDeviation="4"/>
<feColorMatrix type="matrix" values="0 0 0 0 0.317647 0 0 0 0 0.556863 0 0 0 0 0.972549 0 0 0 0.12 0"/>
<feBlend mode="normal" in2="BackgroundImageFix" result="effect1_dropShadow_35_189"/>
<feBlend mode="normal" in="SourceGraphic" in2="effect1_dropShadow_35_189" result="shape"/>
</filter>
<filter id="filter2_d_35_189" x="1.37036" y="13.8992" width="33.329" height="25.1008" filterUnits="userSpaceOnUse" color-interpolation-filters="sRGB">
<feFlood flood-opacity="0" result="BackgroundImageFix"/>
<feColorMatrix in="SourceAlpha" type="matrix" values="0 0 0 0 0 0 0 0 0 0 0 0 0 0 0 0 0 0 127 0" result="hardAlpha"/>
<feOffset dy="4"/>
<feGaussianBlur stdDeviation="4"/>
<feColorMatrix type="matrix" values="0 0 0 0 0.156863 0 0 0 0 0.705882 0 0 0 0 0.27451 0 0 0 0.12 0"/>
<feBlend mode="normal" in2="BackgroundImageFix" result="effect1_dropShadow_35_189"/>
<feBlend mode="normal" in="SourceGraphic" in2="effect1_dropShadow_35_189" result="shape"/>
</filter>
<filter id="filter3_d_35_189" x="1.28589" y="0" width="33.5546" height="25.2783" filterUnits="userSpaceOnUse" color-interpolation-filters="sRGB">
<feFlood flood-opacity="0" result="BackgroundImageFix"/>
<feColorMatrix in="SourceAlpha" type="matrix" values="0 0 0 0 0 0 0 0 0 0 0 0 0 0 0 0 0 0 127 0" result="hardAlpha"/>
<feOffset dy="4"/>
<feGaussianBlur stdDeviation="4"/>
<feColorMatrix type="matrix" values="0 0 0 0 0.945098 0 0 0 0 0.262745 0 0 0 0 0.211765 0 0 0 0.12 0"/>
<feBlend mode="normal" in2="BackgroundImageFix" result="effect1_dropShadow_35_189"/>
<feBlend mode="normal" in="SourceGraphic" in2="effect1_dropShadow_35_189" result="shape"/>
</filter>
</defs>
</svg>
